<svg xmlns="http://www.w3.org/2000/svg" viewBox="0 0 1355 343" width="1355" height="343" role="img" aria-labelledby="t d">
<title id="t">AI Cert 귀여운 학습 배너</title><desc id="d">민트와 하늘색 배경, 곱슬머리 캐릭터, 고양이, 책과 식물 일러스트가 있는 학습 배너</desc>
<defs><linearGradient id="bg" x1="0" x2="1"><stop stop-color="#eafaff"/><stop offset=".55" stop-color="#effcf5"/><stop offset="1" stop-color="#fff8dc"/></linearGradient><linearGradient id="hill" x1="0" x2="1"><stop stop-color="#dff7e9"/><stop offset="1" stop-color="#aeeacb"/></linearGradient></defs>
<rect width="1355" height="343" rx="28" fill="url(#bg)"/><g fill="#fff"><ellipse cx="220" cy="62" rx="58" ry="20"/><ellipse cx="690" cy="54" rx="54" ry="19"/></g><g fill="url(#hill)"><ellipse cx="160" cy="350" rx="280" ry="90"/><ellipse cx="470" cy="352" rx="300" ry="92"/><ellipse cx="760" cy="355" rx="290" ry="96"/></g>
<g font-family="Arial, sans-serif"><text x="70" y="90" font-size="30" font-weight="700" fill="#139667">오늘도, 더 성장하는 나 🌿</text><text x="70" y="160" font-size="55" font-weight="800" fill="#132238">중요 개념을 <tspan fill="#149c69">함께</tspan> 완성해가요!</text><text x="70" y="214" font-size="22" fill="#66778c">차근차근 쌓아가면, 자격증은 분명히 가까워질 거예요.</text><text x="95" y="285" font-size="18" font-weight="700" fill="#15936a" transform="rotate(-5 95 285)">지금도 너무 잘하고 있어요! ✨</text></g>
<g transform="translate(875 24)"><g fill="#66c98d"><ellipse cx="36" cy="240" rx="14" ry="36" transform="rotate(-35 36 240)"/><ellipse cx="74" cy="220" rx="13" ry="31" transform="rotate(30 74 220)"/><ellipse cx="440" cy="80" rx="14" ry="34" transform="rotate(35 440 80)"/></g><circle cx="210" cy="104" r="75" fill="#ffd9c9"/><path d="M132 96c3-62 45-96 91-88 46 8 72 48 57 100-15-18-36-31-63-34-20 12-48 21-85 22z" fill="#654132"/><path d="M145 44c22-35 70-43 102-13 8 8 12 16 14 24-26-15-68-15-116-11z" fill="#6d4536"/><circle cx="181" cy="111" r="9" fill="#3d2b25"/><circle cx="229" cy="111" r="9" fill="#3d2b25"/><circle cx="184" cy="108" r="3" fill="#fff"/><circle cx="232" cy="108" r="3" fill="#fff"/><path d="M190 145q15 14 31 0" fill="none" stroke="#ef727b" stroke-width="6" stroke-linecap="round"/><circle cx="158" cy="136" r="11" fill="#ff9daa" opacity=".45"/><circle cx="251" cy="136" r="11" fill="#ff9daa" opacity=".45"/><path d="M146 182q61-28 121 1l40 117H107z" fill="#25b678"/><path d="M179 190l29 38 30-38" fill="none" stroke="#fff" stroke-width="7"/><rect x="62" y="232" width="142" height="76" rx="13" fill="#dfeaf5" transform="rotate(-3)"/><path d="M129 262l10-12 10 12-10 13z" fill="#23b478"/>
<g transform="translate(310 266)"><ellipse cx="0" cy="8" rx="44" ry="27" fill="#fffaf2"/><circle cx="-20" cy="-14" r="18" fill="#fffaf2"/><circle cx="20" cy="-14" r="18" fill="#fffaf2"/><path d="M-31-24l-5-18 17 12M31-24l5-18-17 12" fill="#f2b26b"/><circle cx="-9" cy="-14" r="3" fill="#392d28"/><circle cx="9" cy="-14" r="3" fill="#392d28"/><path d="M-4-5q4 5 8 0" fill="none" stroke="#d37e66" stroke-width="2"/></g>
<g transform="translate(356 58)"><rect width="105" height="34" rx="9" fill="#56bce0"/><rect y="40" width="105" height="34" rx="9" fill="#43b780"/><rect y="80" width="105" height="34" rx="9" fill="#76c468"/><text x="52" y="23" text-anchor="middle" font-size="17" font-weight="700" fill="#fff">AI</text><text x="52" y="63" text-anchor="middle" font-size="17" font-weight="700" fill="#fff">DATA</text><text x="52" y="103" text-anchor="middle" font-size="17" font-weight="700" fill="#fff">GROWTH</text></g><g fill="#ffd65c"><path d="M300 55l7 18 18 7-18 7-7 18-7-18-18-7 18-7z"/><path d="M398 36l5 12 12 5-12 5-5 12-5-12-12-5 12-5z"/></g><text x="90" y="75" font-size="18" font-weight="700" fill="#1c3f5c" transform="rotate(-9 90 75)">오늘도 화이팅!!</text></g>
</svg>